<svg width="38" height="38" viewBox="0 0 38 38" fill="none" xmlns="http://www.w3.org/2000/svg">
<g opacity="0.2">
<rect x="1" y="1" width="36" height="36" rx="12" stroke="#1565D8" stroke-width="0.75"/>
</g>
<path fill-rule="evenodd" clip-rule="evenodd" d="M14.5337 16.7436C15.6376 15.1749 16.3267 13.3747 16.6031 11.3368C16.6295 11.1427 16.7669 10.9812 16.9555 10.9229C18.8566 10.3345 19.9374 11.2694 19.9196 13.4012C19.9161 13.815 19.897 14.1828 19.8564 14.7454C19.7656 16.0019 19.7728 16.3448 19.9135 16.5755C20.0487 16.7973 20.4877 16.873 21.526 16.6759C21.8536 16.6137 22.1823 16.5432 22.5463 16.4585C22.707 16.4211 23.8645 16.1387 24.1604 16.0748C24.7248 15.953 25.1297 15.9014 25.4858 15.9232C26.4505 15.9824 26.9624 16.6035 27.0509 17.7935C27.2066 19.8891 26.7253 24.0985 26.2451 25.6489C25.7544 27.2333 24.8987 27.8314 22.8445 27.8675C21.5239 27.8907 19.4926 27.8907 16.7413 27.8674C16.039 27.8511 15.4025 27.7151 14.8364 27.4608C14.9953 27.1318 15.0843 26.7632 15.0843 26.374V18.31C15.0843 17.718 14.8784 17.1737 14.5337 16.7436Z" fill="#1565D8"/>
<path opacity="0.3" fill-rule="evenodd" clip-rule="evenodd" d="M11.5253 16.7981C10.6829 16.7981 10 17.475 10 18.3101V26.3741C10 27.2092 10.6829 27.8861 11.5253 27.8861H12.5421C13.3845 27.8861 14.0674 27.2092 14.0674 26.3741V18.3101C14.0674 17.475 13.3845 16.7981 12.5421 16.7981H11.5253Z" fill="#1565D8"/>
</svg>
